<?xml version="1.0" encoding="UTF-8"?>
<!DOCTYPE svg PUBLIC "-//W3C//DTD SVG 1.1//EN" "http://www.w3.org/Graphics/SVG/1.1/DTD/svg11.dtd">
<!-- Creator: CorelDRAW 2018 (64-Bit Evaluation Version) -->
<svg xmlns="http://www.w3.org/2000/svg" xml:space="preserve" width="100mm" height="25mm" version="1.1" shape-rendering="geometricPrecision" text-rendering="geometricPrecision" image-rendering="optimizeQuality" fill-rule="evenodd" clip-rule="evenodd"
viewBox="0 0 10000 2500"
 xmlns:xlink="http://www.w3.org/1999/xlink">
 <g id="Layer_x0020_1">
  <metadata id="CorelCorpID_0Corel-Layer"/>
  <g id="_2697189814256">
   <polygon fill="white" points="830.86,1062.5 837.35,1062.5 1371.64,265.91 2254.49,265.91 1502.84,1216.7 2324.6,2295.82 1393.97,2295.76 837.35,1434.52 830.86,1434.52 830.86,2295.65 66.32,2295.65 66.32,265.91 830.86,265.91 "/>
   <rect fill="white" x="2394.59" y="265.94" width="647.27" height="646.99"/>
   <path fill="white" fill-rule="nonzero" d="M8865.92 2080.51c148.57,0 282.17,-33.76 400.83,-101.29 118.66,-67.53 212.24,-160.62 280.73,-279.28 68.49,-118.66 102.75,-251.3 102.75,-397.94 0,-146.63 -34.26,-279.27 -102.75,-397.93 -68.49,-118.67 -162.07,-211.75 -280.73,-279.28 -118.66,-67.54 -252.26,-101.31 -400.83,-101.31 -148.56,0 -283.14,33.77 -403.73,101.31 -120.59,67.53 -215.13,160.61 -283.62,279.28 -68.5,118.66 -102.74,251.3 -102.74,397.93 0,146.64 34.24,279.28 102.74,397.94 68.49,118.66 163.03,211.75 283.62,279.28 120.59,67.53 255.17,101.29 403.73,101.29zm0 257.59c-204.52,0 -388.78,-44.86 -552.77,-134.58 -164.01,-89.72 -292.79,-213.68 -386.37,-371.89 -93.57,-158.22 -140.37,-334.75 -140.37,-529.63 0,-194.87 46.8,-371.4 140.37,-529.62 93.58,-158.21 222.36,-282.17 386.37,-371.89 163.99,-89.72 348.25,-134.58 552.77,-134.58 202.58,0 385.88,44.86 549.88,134.58 164,89.72 292.31,213.2 384.92,370.44 92.61,157.25 138.91,334.28 138.91,531.07 0,196.8 -46.3,373.83 -138.91,531.07 -92.61,157.25 -220.92,280.73 -384.92,370.45 -164,89.72 -347.3,134.58 -549.88,134.58z"/>
   <path fill="white" fill-rule="nonzero" d="M6855.1 2338.1c-202.59,0 -385.4,-44.86 -548.43,-134.58 -163.03,-89.72 -290.86,-213.2 -383.47,-370.45 -92.61,-157.24 -138.92,-334.27 -138.92,-531.07 0,-196.79 46.31,-373.82 138.92,-531.07 92.61,-157.24 220.92,-280.72 384.92,-370.44 163.99,-89.72 347.29,-134.58 549.87,-134.58 158.22,0 302.92,26.53 434.12,79.59 131.2,53.06 243.11,131.68 335.72,235.87l-188.11 182.33c-152.43,-160.14 -342.47,-240.22 -570.15,-240.22 -150.49,0 -286.51,33.77 -408.06,101.31 -121.56,67.53 -216.58,160.61 -285.07,279.28 -68.5,118.66 -102.75,251.3 -102.75,397.93 0,146.64 34.25,279.28 102.75,397.94 68.49,118.66 163.51,211.75 285.07,279.28 121.55,67.53 257.57,101.29 408.06,101.29 225.74,0 415.79,-81.02 570.15,-243.09l188.11 182.33c-92.61,104.19 -205,183.28 -337.16,237.31 -132.16,54.03 -277.36,81.04 -435.57,81.04z"/>
   <path fill="white" fill-rule="nonzero" d="M5096.06 1576.95l-437.01 -992.69 -437.01 992.69 874.02 0zm101.3 231.52l-1076.61 0 -222.85 506.47 -298.09 0 917.43 -2025.87 286.53 0 920.31 2025.87 -303.87 0 -222.85 -506.47z"/>
  </g>
 </g>
</svg>
