<?xml version="1.0" encoding="UTF-8"?>
<!DOCTYPE svg PUBLIC "-//W3C//DTD SVG 1.1//EN" "http://www.w3.org/Graphics/SVG/1.1/DTD/svg11.dtd">
<!-- Creator: CorelDRAW 2018 (64-Bit Evaluation Version) -->
<svg xmlns="http://www.w3.org/2000/svg" xml:space="preserve" width="100mm" height="25mm" version="1.1" shape-rendering="geometricPrecision" text-rendering="geometricPrecision" image-rendering="optimizeQuality" fill-rule="evenodd" clip-rule="evenodd"
viewBox="0 0 10000 2500"
 xmlns:xlink="http://www.w3.org/1999/xlink">
 <g id="Layer_x0020_1">
  <metadata id="CorelCorpID_0Corel-Layer"/>
  <g id="_2661261021456">
   <path fill="white" d="M3292.39 351.32c-0.05,-0.33 -0.1,-0.64 -0.15,-0.96 -0.19,-1.18 -0.43,-2.35 -0.75,-3.48 -0.05,-0.18 -0.09,-0.35 -0.14,-0.53 -0.39,-1.31 -0.87,-2.59 -1.42,-3.82 -0.09,-0.21 -0.2,-0.41 -0.3,-0.62 -0.5,-1.07 -1.07,-2.11 -1.69,-3.11 -0.12,-0.2 -0.24,-0.4 -0.36,-0.6 -0.72,-1.11 -1.51,-2.17 -2.37,-3.18 -0.17,-0.2 -0.35,-0.38 -0.52,-0.58 -0.76,-0.84 -1.55,-1.64 -2.39,-2.39 -0.21,-0.2 -0.41,-0.4 -0.63,-0.58 -1.02,-0.87 -2.09,-1.68 -3.21,-2.41 -0.17,-0.12 -0.35,-0.22 -0.53,-0.33 -1.06,-0.66 -2.17,-1.27 -3.32,-1.81 -0.11,-0.05 -0.22,-0.12 -0.34,-0.18l-537.59 -243.99c-8.23,-3.75 -17.68,-3.75 -25.91,0l-371.46 168.59c-15.77,7.16 -22.75,25.74 -15.59,41.51 7.15,15.76 25.74,22.76 41.51,15.59l358.49 -162.72 460.73 209.11 -460.73 202.47 -524.98 -230.71c-0.03,-0.01 -0.07,-0.02 -0.11,-0.04 -0.77,-0.33 -1.56,-0.62 -2.36,-0.9 -0.2,-0.07 -0.4,-0.15 -0.6,-0.22 -0.66,-0.21 -1.34,-0.37 -2.01,-0.54 -0.35,-0.08 -0.71,-0.19 -1.07,-0.27 -0.43,-0.09 -0.87,-0.14 -1.31,-0.22 -0.61,-0.1 -1.22,-0.21 -1.83,-0.28 -0.29,-0.03 -0.58,-0.03 -0.87,-0.05 -0.77,-0.06 -1.53,-0.11 -2.29,-0.11 -0.05,0 -0.1,-0.01 -0.16,-0.01 -0.29,0 -0.58,0.04 -0.88,0.04 -0.67,0.02 -1.35,0.04 -2.02,0.1 -0.52,0.05 -1.03,0.13 -1.55,0.21 -0.47,0.07 -0.94,0.13 -1.41,0.22 -0.64,0.12 -1.26,0.28 -1.89,0.43 -0.34,0.09 -0.68,0.16 -1.01,0.27 -0.68,0.19 -1.34,0.43 -1.99,0.66 -0.29,0.1 -0.57,0.2 -0.85,0.31 -0.65,0.26 -1.28,0.55 -1.91,0.85 -0.29,0.14 -0.58,0.27 -0.87,0.42 -0.57,0.3 -1.12,0.62 -1.67,0.95 -0.34,0.2 -0.68,0.4 -1,0.61 -0.48,0.3 -0.93,0.63 -1.39,0.96 -0.38,0.28 -0.76,0.56 -1.13,0.85 -0.38,0.31 -0.75,0.63 -1.12,0.96 -0.4,0.35 -0.8,0.7 -1.18,1.07 -0.33,0.32 -0.64,0.67 -0.96,1 -0.37,0.4 -0.75,0.8 -1.11,1.22 -0.32,0.38 -0.61,0.78 -0.92,1.17 -0.31,0.4 -0.62,0.8 -0.91,1.22 -0.35,0.5 -0.66,1.02 -0.98,1.54 -0.2,0.34 -0.42,0.67 -0.62,1.02 -0.37,0.68 -0.71,1.38 -1.04,2.08 -0.09,0.2 -0.2,0.38 -0.29,0.58 -0.02,0.04 -0.02,0.08 -0.04,0.12 -0.34,0.76 -0.62,1.56 -0.9,2.35 -0.07,0.2 -0.16,0.41 -0.22,0.61 -0.21,0.65 -0.37,1.32 -0.53,1.98 -0.09,0.37 -0.21,0.73 -0.29,1.1 -0.08,0.41 -0.13,0.83 -0.2,1.25 -0.11,0.63 -0.23,1.27 -0.29,1.91 -0.03,0.25 -0.03,0.5 -0.05,0.75 -0.07,0.8 -0.12,1.61 -0.12,2.41 0,0.05 -0.01,0.09 -0.01,0.14l0 612.08c0,12.23 7.11,23.34 18.21,28.47l537.59 248.29c0,0 0.07,0.02 0.11,0.05 0.23,0.1 0.46,0.17 0.69,0.27 1.05,0.45 2.1,0.84 3.16,1.16 0.37,0.12 0.75,0.21 1.13,0.31 1.02,0.28 2.03,0.49 3.05,0.66 0.32,0.05 0.63,0.11 0.95,0.15 1.34,0.18 2.69,0.3 4.04,0.3 0.13,0 0.26,-0.03 0.39,-0.03 1.19,-0.01 2.37,-0.1 3.55,-0.25 0.43,-0.06 0.86,-0.14 1.29,-0.21 0.91,-0.16 1.82,-0.35 2.73,-0.59 0.42,-0.11 0.83,-0.21 1.25,-0.34 1,-0.31 1.97,-0.67 2.95,-1.08 0.27,-0.12 0.54,-0.21 0.81,-0.33 0.07,-0.03 0.13,-0.04 0.19,-0.07l537.59 -248.3c11.1,-5.12 18.21,-16.23 18.21,-28.46l0 -612.1c0,-1.35 -0.12,-2.67 -0.28,-3.97zm-537.32 815.34l0 -420.96c0,-17.32 -14.03,-31.36 -31.35,-31.36 -17.31,0 -31.35,14.04 -31.35,31.36l0 420.97 -474.89 -219.34 0 -544.01 493.63 216.93c4.02,1.77 8.32,2.65 12.62,2.65 4.3,0 8.59,-0.88 12.61,-2.65l493.62 -216.93 0 544.01 -474.89 219.33z"/>
   <g>
   </g>
   <g>
   </g>
   <g>
   </g>
   <g>
   </g>
   <g>
   </g>
   <g>
   </g>
   <g>
   </g>
   <g>
   </g>
   <g>
   </g>
   <g>
   </g>
   <g>
   </g>
   <g>
   </g>
   <g>
   </g>
   <g>
   </g>
   <g>
   </g>
  </g>
  <polygon fill="white" fill-rule="nonzero" points="866.96,1654.15 647.26,1888.7 647.26,2408.27 65.34,2408.27 65.34,329.98 647.26,329.98 647.26,1193.96 1451.85,329.98 2099.09,329.98 1249.96,1250.37 2143.62,2408.27 1460.76,2408.27 "/>
  <path id="1" fill="white" fill-rule="nonzero" d="M5088.86 1888.7l-1104.46 0 -228.61 519.57 -305.81 0 941.17 -2078.29 293.93 0 944.13 2078.29 -311.74 0 -228.61 -519.57zm-103.92 -237.52l-448.31 -1018.36 -448.32 1018.36 896.63 0z"/>
  <path id="2" fill="white" fill-rule="nonzero" d="M6789.48 2432.02c-207.82,0 -395.37,-46.02 -562.62,-138.06 -167.25,-92.03 -298.38,-218.71 -393.39,-380.03 -95.01,-161.31 -142.51,-342.91 -142.51,-544.8 0,-201.89 47.5,-383.5 142.51,-544.81 95.01,-161.32 226.63,-287.99 394.88,-380.03 168.24,-92.04 356.27,-138.06 564.1,-138.06 162.31,0 310.76,27.22 445.35,81.65 134.59,54.43 249.39,135.09 344.4,241.97l-192.98 187.05c-156.37,-164.29 -351.33,-246.43 -584.89,-246.43 -154.39,0 -293.93,34.64 -418.63,103.92 -124.69,69.27 -222.18,164.77 -292.44,286.5 -70.27,121.73 -105.4,257.81 -105.4,408.24 0,150.43 35.13,286.5 105.4,408.23 70.26,121.73 167.75,217.23 292.44,286.51 124.7,69.27 264.24,103.91 418.63,103.91 231.58,0 426.54,-83.13 584.89,-249.39l192.98 187.04c-95.01,106.89 -210.3,188.04 -345.88,243.46 -135.59,55.42 -284.53,83.13 -446.84,83.13z"/>
  <path id="3" fill="white" fill-rule="nonzero" d="M8852.33 2432.02c-209.81,0 -398.83,-46.02 -567.07,-138.06 -168.25,-92.03 -300.37,-219.21 -396.36,-381.51 -96,-162.3 -144,-343.41 -144,-543.32 0,-199.91 48,-381.02 144,-543.33 95.99,-162.3 228.11,-289.47 396.36,-381.51 168.24,-92.04 357.26,-138.06 567.07,-138.06 207.83,0 395.86,46.02 564.11,138.06 168.24,92.04 299.86,218.71 394.87,380.03 95.01,161.31 142.51,342.92 142.51,544.81 0,201.89 -47.5,383.49 -142.51,544.8 -95.01,161.32 -226.63,288 -394.87,380.03 -168.25,92.04 -356.28,138.06 -564.11,138.06zm0 -264.24c152.41,0 289.48,-34.64 411.2,-103.91 121.73,-69.28 217.73,-164.78 288,-286.51 70.26,-121.73 105.39,-257.8 105.39,-408.23 0,-150.43 -35.13,-286.51 -105.39,-408.24 -70.27,-121.73 -166.27,-217.23 -288,-286.5 -121.72,-69.28 -258.79,-103.92 -411.2,-103.92 -152.41,0 -290.46,34.64 -414.17,103.92 -123.71,69.27 -220.7,164.77 -290.96,286.5 -70.27,121.73 -105.4,257.81 -105.4,408.24 0,150.43 35.13,286.5 105.4,408.23 70.26,121.73 167.25,217.23 290.96,286.51 123.71,69.27 261.76,103.91 414.17,103.91z"/>
 </g>
</svg>
