<?xml version="1.0" encoding="UTF-8"?>
<!DOCTYPE svg PUBLIC "-//W3C//DTD SVG 1.1//EN" "http://www.w3.org/Graphics/SVG/1.1/DTD/svg11.dtd">
<!-- Creator: CorelDRAW 2018 (64-Bit Evaluation Version) -->
<svg xmlns="http://www.w3.org/2000/svg" xml:space="preserve" width="100mm" height="25mm" version="1.1" shape-rendering="geometricPrecision" text-rendering="geometricPrecision" image-rendering="optimizeQuality" fill-rule="evenodd" clip-rule="evenodd"
viewBox="0 0 10000 2500"
 xmlns:xlink="http://www.w3.org/1999/xlink"
 enable-background="new 0 0 511.846 511.846">
 <g id="Layer_x0020_1">
  <metadata id="CorelCorpID_0Corel-Layer"/>
  <polygon fill="white" fill-rule="nonzero" points="1436.94,1281.06 2170.6,2311.76 2417.14,2311.76 2417.14,2439.48 1722.09,2439.48 1113.17,1619.68 905.25,1851.36 905.25,2439.48 186.44,2439.48 186.44,2311.76 441.89,2311.76 441.89,363.24 905.25,363.24 905.25,1215.72 1689.41,363.24 2262.68,363.24 "/>
  <polygon id="1" fill="white" fill-rule="nonzero" points="3109.21,2311.76 3109.21,2439.48 2295.35,2439.48 2295.35,2311.76 "/>
  <path id="2" fill="white" fill-rule="nonzero" d="M5692.55 2311.76l0 127.72 -662.38 0 -207.92 -472.28 -1039.6 0 -207.92 472.28 -662.38 0 0 -127.72 344.56 0 858.41 -1948.52 374.26 0 858.42 1948.52 344.55 0zm-1012.87 -668.32l-377.23 -855.45 -377.23 855.45 754.46 0z"/>
  <path id="3" fill="white" fill-rule="nonzero" d="M7428.75 2311.76l0 127.72 -2186.14 0 0 -127.72 659.41 0c-156.44,-93.07 -279.71,-219.81 -369.81,-380.2 -90.09,-160.4 -135.14,-341.59 -135.14,-543.57 0,-304.95 105.44,-560.39 316.33,-766.33 210.89,-205.94 477.23,-308.91 799.01,-308.91 321.79,0 590.6,118.81 806.44,356.43l-222.77 243.57c-99.01,-95.05 -192.58,-161.39 -280.7,-199.01 -88.12,-37.63 -191.58,-56.44 -310.39,-56.44 -209.9,0 -386.14,67.82 -528.72,203.47 -142.57,135.64 -213.86,308.91 -213.86,519.8 0,210.89 70.79,387.13 212.38,528.71 141.58,141.59 309.41,212.38 503.46,212.38 120.8,0 224.76,-20.3 311.89,-60.89 87.13,-40.6 178.21,-105.45 273.26,-194.56l225.75 231.69c-87.13,95.05 -170.3,166.33 -249.51,213.86l389.11 0z"/>
  <path id="4" fill="white" fill-rule="nonzero" d="M9865.95 2311.76l0 127.72 -2495.05 0 0 -127.72 680.2 0c-162.38,-93.07 -290.6,-220.8 -384.66,-383.17 -94.05,-162.38 -141.08,-343.57 -141.08,-543.57 0,-304.95 104.95,-559.9 314.85,-764.85 209.9,-204.95 469.3,-307.42 778.22,-307.42 308.91,0 568.31,102.47 778.21,307.42 209.91,204.95 314.86,459.9 314.86,764.85 0,198.02 -47.03,379.21 -141.09,543.57 -94.06,164.36 -222.28,292.08 -384.66,383.17l680.2 0zm-726.24 -1458.42c-141.58,-146.53 -315.34,-219.8 -521.28,-219.8 -205.94,0 -379.71,73.27 -521.29,219.8 -141.59,146.53 -212.38,324.26 -212.38,533.17 0,208.91 70.79,386.63 212.38,533.17 141.58,146.53 315.35,219.8 521.29,219.8 205.94,0 379.7,-73.27 521.28,-219.8 141.59,-146.54 212.38,-324.26 212.38,-533.17 0,-208.91 -70.79,-386.64 -212.38,-533.17z"/>
  <path fill="white" d="M2740.29 544.83l-334.28 -155.06c-14.87,-6.89 -32.43,-6.61 -46.98,0.78 -14.55,7.38 -23.23,20.41 -23.23,34.86l0 359.7c0,14.55 9.21,28.06 24.03,35.26l334.29 162.2c7.37,3.57 15.43,5.36 23.49,5.36 8.22,0 16.43,-1.85 23.89,-5.56 14.79,-7.35 23.62,-20.45 23.62,-35.06l0 -366.84c0,-14.88 -9.51,-28.53 -24.82,-35.64l-0.01 0z"/>
  <path fill="white" d="M3209.25 296.21c-0.02,-15.19 -9.85,-28.96 -25.64,-35.95l-364.53 -161.3c-13.8,-6.11 -30.25,-6.07 -44.01,0.11l-359.16 161.3c-15.64,7.03 -25.37,20.76 -25.39,35.84 -0.02,15.09 9.67,28.84 25.28,35.89l359.17 162.31c6.96,3.14 14.59,4.71 22.23,4.71 7.55,0 15.09,-1.53 21.98,-4.6l364.53 -162.3c15.78,-7.03 25.57,-20.83 25.54,-36.01l0 0z"/>
  <path fill="white" d="M3246.68 390.55c-14.54,-7.39 -32.11,-7.68 -46.97,-0.78l-334.3 155.06c-15.31,7.11 -24.82,20.76 -24.82,35.63l0 366.85c0,14.6 8.83,27.71 23.62,35.05 7.46,3.71 15.67,5.57 23.89,5.57 8.06,0 16.12,-1.79 23.49,-5.36l334.29 -162.21c14.83,-7.19 24.03,-20.7 24.03,-35.25l0 -359.7c0,-14.45 -8.68,-27.48 -23.23,-34.86l0 0z"/>
 </g>
</svg>
