<svg xmlns="http://www.w3.org/2000/svg" xml:space="preserve" width="80mm" height="100mm" version="1.1" shape-rendering="geometricPrecision" text-rendering="geometricPrecision" image-rendering="optimizeQuality" fill-rule="evenodd" clip-rule="evenodd"
viewBox="0 0 8000 10000"
 xmlns:xlink="http://www.w3.org/1999/xlink">
 <g>
  <path d="M1476.56 8833.8l0 -1611.75 2183.38 0 0 1611.75 -2183.38 0zm5046.88 -3850.58l-2183.34 0 0 1558.68 2183.34 0 0 -1558.68zm-2863.5 0l-2183.38 0 0 1558.68 2183.38 0 0 -1558.68zm680.16 2238.83l2183.34 0 0 1611.75 -2183.34 0 0 -1611.75zm-3379.53 2291.9c1892.95,0 4185.91,0 6078.86,0 90.29,0 164.16,-73.87 164.16,-164.17l0 -5512.65c-1.15,-87.87 -67.75,-162.9 -164.16,-164.17l-6078.86 0c-89.4,0 -164.17,74.77 -164.17,164.17l0 5512.65c0,90.95 75.43,164.17 164.17,164.17z"/>
  <path d="M2048.03 1313.07l2799.84 0 -544.36 -544.36c-68.98,-68.97 -68.98,-181.81 0,-250.77l230.17 -230.18c68.97,-68.96 181.81,-68.96 250.77,0l1062.94 1062.94 230.18 230.18c68.96,68.96 68.96,181.8 0,250.77l-230.18 230.17 -1062.94 1062.94c-68.96,68.97 -181.8,68.97 -250.77,0l-230.17 -230.18c-68.98,-68.95 -68.98,-181.79 0,-250.76l650.58 -650.59 -2906.06 0c-97.51,0 -177.32,-79.79 -177.32,-177.32l0 -325.52c0,-97.53 79.79,-177.32 177.32,-177.32z"/>
 </g>
</svg>
